<?xml version="1.0" encoding="UTF-8" standalone="no"?>
<!-- Created with Inkscape (http://www.inkscape.org/) -->

<svg
   width="680"
   height="680"
   viewBox="0 0 179.91703 179.91688"
   version="1.1"
   id="svg1"
   xml:space="preserve"
   inkscape:version="1.3.2 (091e20e, 2023-11-25, custom)"
   sodipodi:docname="dibujo-1.svg"
   xmlns:inkscape="http://www.inkscape.org/namespaces/inkscape"
   xmlns:sodipodi="http://sodipodi.sourceforge.net/DTD/sodipodi-0.dtd"
   xmlns:xlink="http://www.w3.org/1999/xlink"
   xmlns="http://www.w3.org/2000/svg"
   xmlns:svg="http://www.w3.org/2000/svg"><sodipodi:namedview
     id="namedview1"
     pagecolor="#ffffff"
     bordercolor="#000000"
     borderopacity="0.25"
     inkscape:showpageshadow="2"
     inkscape:pageopacity="0.0"
     inkscape:pagecheckerboard="0"
     inkscape:deskcolor="#d1d1d1"
     inkscape:document-units="mm"
     inkscape:zoom="1.1458394"
     inkscape:cx="342.54365"
     inkscape:cy="500.50646"
     inkscape:window-width="3840"
     inkscape:window-height="2054"
     inkscape:window-x="2293"
     inkscape:window-y="-11"
     inkscape:window-maximized="1"
     inkscape:current-layer="layer1" /><defs
     id="defs1"><linearGradient
       id="linearGradient34"
       inkscape:collect="always"><stop
         style="stop-color:#000000;stop-opacity:0.34000005;"
         offset="0"
         id="stop34" /><stop
         style="stop-color:#000000;stop-opacity:0;"
         offset="1"
         id="stop35" /></linearGradient><linearGradient
       id="linearGradient8"
       inkscape:collect="always"><stop
         style="stop-color:#7800ff;stop-opacity:0.990632;"
         offset="0"
         id="stop8" /><stop
         style="stop-color:#68ffff;stop-opacity:1;"
         offset="1"
         id="stop9" /></linearGradient><linearGradient
       inkscape:collect="always"
       xlink:href="#linearGradient8"
       id="linearGradient32"
       x1="180.31403"
       y1="42.097153"
       x2="209.8768"
       y2="73.694565"
       gradientUnits="userSpaceOnUse" /><linearGradient
       inkscape:collect="always"
       xlink:href="#linearGradient34"
       id="linearGradient35"
       x1="180.25652"
       y1="54.640343"
       x2="210.01042"
       y2="54.640343"
       gradientUnits="userSpaceOnUse" /></defs><g
     inkscape:label="Capa 1"
     inkscape:groupmode="layer"
     id="layer1"><g
       id="g35"
       transform="matrix(2.5149577,0,0,2.5149577,-403.07055,-45.081887)"><path
         id="path21"
         style="opacity:0.181087;fill:none;stroke:#000000;stroke-width:0.264999;stroke-opacity:0.967672"
         d="m 219.73563,54.640343 a 24.60216,24.60216 0 0 1 -24.58552,24.602154 24.60216,24.60216 0 0 1 -24.61878,-24.568869 24.60216,24.60216 0 0 1 24.55221,-24.635394 24.60216,24.60216 0 0 1 24.652,24.535538" /><path
         style="opacity:0.193159;fill:#00ffde;fill-opacity:1;stroke-width:0.690624"
         d="m 187.7346,75.923192 c -0.52917,-0.672735 -0.49563,-1.610965 0.0781,-2.184698 0.44412,-0.444118 0.45682,-0.528526 0.45682,-3.035776 v -2.578956 l -0.77659,-1.013135 c -0.42712,-0.557223 -0.87646,-1.181401 -0.99851,-1.38706 -0.1844,-0.310657 -0.22305,-0.06242 -0.22842,1.46718 -0.006,1.7317 0.0207,1.866606 0.45033,2.270263 0.86612,0.813673 0.49329,2.472726 -0.63623,2.831224 -0.56618,0.179699 -1.55991,-0.224112 -1.84016,-0.747761 -0.3555,-0.664265 -0.23358,-1.54357 0.28979,-2.089837 l 0.45069,-0.470442 -0.006,-6.659554 c -0.005,-5.08284 -0.0548,-6.573027 -0.21407,-6.294097 -0.11471,0.201 -0.56443,0.804686 -0.99944,1.341524 l -0.79092,0.97607 v 2.600945 c 0,2.538083 0.0106,2.611319 0.45681,3.030104 0.3484,0.327304 0.45683,0.613609 0.45683,1.206319 0,0.980668 -0.60551,1.534593 -1.67751,1.534593 -1.46841,0 -2.12925,-1.549481 -1.15478,-2.707588 0.44376,-0.527379 0.45685,-0.623098 0.45779,-3.348795 9.7e-4,-3.218046 -0.13405,-2.85504 2.05471,-5.516949 l 1.41614,-1.722224 v -3.408273 -3.408271 l -1.59691,1.285132 -1.59688,1.285134 -2.92561,0.0032 c -2.83665,0.003 -2.93805,0.0163 -3.33513,0.435208 -1.08528,1.14502 -2.97093,0.366298 -2.97093,-1.22692 0,-0.64628 0.65528,-1.373424 1.35617,-1.504914 0.60706,-0.113877 1.64528,0.255896 1.77936,0.633755 0.035,0.0983 1.23887,0.194353 2.74181,0.218756 l 2.67963,0.04351 1.17361,-0.900139 1.17363,-0.90014 -1.64106,-0.05289 c -1.46998,-0.04736 -1.68478,-0.01179 -2.06029,0.340938 -0.24532,0.230482 -0.75122,0.431248 -1.21974,0.484055 -0.72677,0.08191 -0.84569,0.03658 -1.29048,-0.492002 -0.65807,-0.782085 -0.64322,-1.525359 0.0443,-2.212799 0.66374,-0.663752 1.37348,-0.693007 2.25755,-0.09305 0.61735,0.418941 0.82724,0.445716 4.18256,0.533581 1.94292,0.05087 4.86089,0.0454 6.48437,-0.01224 l 2.95177,-0.104704 -0.94177,-0.765075 c -1.43073,-1.162294 -1.52202,-1.189055 -4.05543,-1.189055 -2.20319,0 -2.34173,0.02214 -2.85831,0.456818 -0.39269,0.330416 -0.75773,0.456817 -1.31931,0.456817 -1.00294,0 -1.57101,-0.552364 -1.57101,-1.527583 0,-1.435727 1.56434,-2.08395 2.70758,-1.121964 0.52953,0.44557 0.61482,0.456818 3.4631,0.456818 h 2.92022 l 2.05547,1.644548 2.05547,1.644547 3.49477,-0.0029 c 1.92212,-0.0015 3.40636,-0.06322 3.29832,-0.137045 -0.10806,-0.07384 -0.70419,-0.776896 -1.32477,-1.562357 l -1.12833,-1.428108 v -2.993952 c 0,-2.324061 -0.0554,-3.026647 -0.24742,-3.140078 -0.80814,-0.477291 -0.86302,-1.713333 -0.10956,-2.466806 0.48127,-0.481268 0.64831,-0.541988 1.23342,-0.448322 0.88342,0.141429 1.31629,0.687667 1.31629,1.66103 0,0.595071 -0.10836,0.870896 -0.47669,1.213167 l -0.47672,0.442989 0.12846,2.643445 0.12847,2.643444 0.89637,1.072765 0.89638,1.072764 v -1.694431 c 0,-1.453909 -0.0529,-1.750742 -0.37268,-2.091141 -0.20498,-0.218191 -0.4207,-0.692483 -0.47936,-1.053984 -0.26892,-1.657188 2.32871,-2.44694 3.02462,-0.919568 0.35862,0.787081 0.14494,1.768118 -0.46334,2.12738 -0.2009,0.118653 -0.2474,1.403435 -0.2474,6.833847 v 6.687723 l 0.89941,-1.188117 0.89943,-1.188117 0.12906,-2.543078 0.12908,-2.54308 -0.48035,-0.570846 c -0.90623,-1.077017 -0.5263,-2.674157 0.69046,-2.902423 0.68511,-0.128536 1.63543,0.261582 1.82208,0.747973 0.25744,0.670899 0.10579,1.526141 -0.37116,2.092954 l -0.48468,0.575995 0.11471,2.656161 c 0.0798,1.846015 0.0511,2.775142 -0.094,3.046256 -0.11486,0.214551 -0.89396,1.241846 -1.73141,2.282874 l -1.52264,1.892779 V 58.7122 c 0,3.218518 0.0214,3.444214 0.30103,3.16464 0.16558,-0.165574 0.84396,-0.736807 1.50751,-1.269404 l 1.20646,-0.968359 2.99412,-0.118743 c 2.86804,-0.113741 3.01774,-0.138586 3.55427,-0.590053 0.46418,-0.390583 0.68651,-0.454356 1.2981,-0.372327 0.95249,0.127751 1.38124,0.649907 1.38124,1.682168 0,0.634477 -0.0941,0.862848 -0.48146,1.167486 -0.7411,0.582954 -2.07346,0.429545 -2.49694,-0.287504 -0.11244,-0.190299 -0.76623,-0.247181 -2.83228,-0.246398 l -2.68614,0.0011 -1.25774,1.003982 -1.25774,1.003983 h 1.78496 c 1.66926,0 1.81242,-0.02962 2.20834,-0.456817 0.61617,-0.664875 1.90542,-0.651842 2.43756,0.02464 0.82538,1.049306 0.17303,2.624906 -1.08682,2.624906 -0.6153,0 -1.25854,-0.278963 -1.54948,-0.671985 -0.14872,-0.200978 -1.41381,-0.237869 -6.80919,-0.198562 l -6.62643,0.04827 1.25802,0.95932 1.25802,0.959318 h 2.66412 c 2.04668,0 2.69799,-0.05733 2.81025,-0.247416 0.43786,-0.741412 1.63939,-0.857397 2.37019,-0.228795 0.66669,0.573463 0.71628,1.728449 0.10065,2.344092 -0.60022,0.60022 -1.6954,0.558475 -2.37273,-0.09044 l -0.52016,-0.498347 h -2.93658 -2.93659 l -2.05547,-1.644549 -2.05547,-1.644547 h -3.3729 -3.37289 l 1.24858,1.598866 1.24858,1.598867 v 2.923639 c 0,2.77838 0.0201,2.943835 0.40649,3.330128 0.54267,0.542661 0.68953,1.216709 0.41142,1.888133 -0.28302,0.683284 -0.67611,0.903108 -1.61491,0.903108 -0.57062,0 -0.81221,-0.104945 -1.10838,-0.481462 z m 1.91368,-0.332506 c 0.56755,-0.567553 0.56562,-0.912808 -0.008,-1.486738 -0.44886,-0.448865 -0.45681,-0.50727 -0.45681,-3.354607 v -2.897787 l -1.38126,-1.766964 c -0.75969,-0.971831 -1.35477,-1.904784 -1.32238,-2.07323 0.0524,-0.273046 0.47498,-0.3116 3.89521,-0.355453 l 3.83632,-0.04918 2.07849,1.667661 2.07849,1.667663 3.03643,0.09842 c 2.88987,0.09367 3.05586,0.119183 3.43885,0.528575 0.50288,0.537561 1.02668,0.548059 1.5091,0.03024 0.44639,-0.479136 0.46948,-0.842266 0.0881,-1.386706 -0.38796,-0.553885 -1.17941,-0.530628 -1.72555,0.0507 -0.42331,0.450609 -0.46908,0.456806 -3.36663,0.455971 l -2.93746,-8.3e-4 -1.46183,-1.190338 c -2.34841,-1.912285 -2.64508,-1.815083 5.7096,-1.870772 l 7.17142,-0.0478 0.39904,0.458938 c 0.6677,0.767925 1.97769,0.427254 1.97769,-0.514312 0,-0.933264 -1.27717,-1.380119 -1.91864,-0.671296 -0.29803,0.329324 -0.56279,0.365456 -2.67787,0.365456 -1.93609,0 -2.34714,-0.04672 -2.34714,-0.266822 0,-0.146747 0.66604,-0.804568 1.48009,-1.461819 l 1.48008,-1.194998 h 2.96488 c 2.92629,0 2.97049,0.0059 3.39406,0.456818 0.55176,0.587327 1.1848,0.587864 1.56911,0.0014 0.78826,-1.203048 -0.80968,-2.232933 -1.73488,-1.118137 -0.2064,0.248684 -0.70469,0.294533 -3.20111,0.294533 h -2.95669 l -1.72299,1.375671 c -0.94763,0.75662 -1.84775,1.351694 -2.00026,1.322386 -0.23558,-0.04527 -0.2847,-0.633647 -0.32654,-3.911573 l -0.0492,-3.858286 1.64812,-2.070196 1.64811,-2.070197 v -2.96673 c 0,-2.673229 0.0333,-2.990353 0.33647,-3.205502 0.18504,-0.131318 0.43759,-0.429295 0.56117,-0.66216 0.42867,-0.807681 -0.61885,-1.755092 -1.44922,-1.310699 -0.76561,0.409746 -0.77186,1.38846 -0.0121,1.947517 0.23873,0.175732 0.30071,0.724885 0.35091,3.109156 l 0.0609,2.895728 -1.22841,1.604585 c -0.79001,1.031936 -1.33345,1.584365 -1.52279,1.547929 -0.26371,-0.05075 -0.29935,-0.800338 -0.34216,-7.1973 l -0.0478,-7.140646 0.45893,-0.495175 c 0.55387,-0.597654 0.58274,-1.083418 0.0934,-1.572711 -0.46527,-0.465273 -0.99654,-0.465273 -1.46181,0 -0.49334,0.493344 -0.45983,1.026345 0.097,1.542373 0.45424,0.420969 0.46153,0.469911 0.41114,2.762923 -0.0347,1.577732 -0.12045,2.357336 -0.26477,2.405242 -0.11742,0.03899 -0.75148,-0.570994 -1.40903,-1.355509 l -1.19555,-1.42639 -0.008,-3.079989 c -0.008,-3.023592 9.6e-4,-3.089929 0.44972,-3.622887 0.56628,-0.672993 0.56698,-0.786754 0.008,-1.345438 -0.54408,-0.544083 -0.89649,-0.565314 -1.37876,-0.08306 -0.49483,0.494848 -0.45972,1.126812 0.0914,1.644548 0.44977,0.42253 0.45681,0.473596 0.45681,3.306494 v 2.877337 l 1.38753,1.75684 c 0.83622,1.058794 1.34672,1.86317 1.28483,2.024453 -0.0857,0.223428 -0.74641,0.267611 -4.00147,0.267611 h -3.89878 l -2.05115,-1.644546 -2.05114,-1.644548 h -2.94282 c -2.9043,0 -2.94837,-0.0061 -3.36618,-0.456818 -0.23285,-0.251249 -0.60583,-0.456818 -0.82884,-0.456818 -0.99046,0 -1.4632,1.351084 -0.66769,1.908277 0.55092,0.385871 0.75444,0.360594 1.38785,-0.172367 0.53092,-0.446748 0.60877,-0.456772 3.53151,-0.454677 l 2.98864,0.0021 1.41612,1.122598 c 2.36982,1.878593 2.63732,1.796755 -5.87341,1.796755 -6.32961,0 -7.30348,-0.0363 -7.39533,-0.275671 -0.0582,-0.151619 -0.31029,-0.368851 -0.56024,-0.482738 -1.06247,-0.484086 -1.93517,1.081896 -0.97696,1.75305 0.5509,0.385873 0.75444,0.360594 1.38783,-0.172366 0.51405,-0.432534 0.66117,-0.456819 2.76765,-0.456819 2.18722,0 2.22375,0.0068 2.16634,0.40151 -0.0345,0.236401 -0.61286,0.856309 -1.4068,1.507501 l -1.3484,1.105992 h -2.98091 c -2.856,0 -2.99696,-0.01723 -3.36393,-0.411136 -0.60016,-0.644177 -1.38476,-0.53317 -1.79924,0.254561 -0.1685,0.320215 -0.13769,0.478452 0.16863,0.867955 0.46975,0.597194 0.90113,0.60248 1.59392,0.01953 0.52943,-0.445476 0.61524,-0.456819 3.45668,-0.456819 h 2.91378 l 1.62805,-1.276239 c 0.8954,-0.701933 1.75973,-1.277524 1.92071,-1.279093 0.3562,-0.0035 0.52681,1.742205 0.52849,5.407564 l 9.7e-4,2.395412 -0.68523,0.802496 c -1.49715,1.753373 -2.27194,2.743492 -2.52215,3.223154 -0.19406,0.372029 -0.26248,1.224499 -0.26332,3.280913 -9.7e-4,2.737143 -0.008,2.78522 -0.46928,3.246454 -0.47241,0.472403 -0.48361,0.952398 -0.0352,1.512765 0.25896,0.3237 1.05379,0.283089 1.44837,-0.07401 0.46494,-0.420768 0.41691,-1.01797 -0.12271,-1.524862 -0.45226,-0.424887 -0.45674,-0.459316 -0.44971,-3.457992 l 0.008,-3.028833 1.19574,-1.426625 c 1.88759,-2.252053 1.79679,-2.535699 1.85291,5.78796 l 0.0479,7.09732 -0.54455,0.620207 c -0.62839,0.715695 -0.55818,1.263988 0.21851,1.706192 0.41032,0.233615 0.51607,0.228003 0.9402,-0.0499 0.63156,-0.413822 0.63848,-1.186454 0.0158,-1.77138 -0.4527,-0.425281 -0.46099,-0.480253 -0.41115,-2.727083 0.0474,-2.142095 0.0745,-2.29305 0.41071,-2.29305 0.2299,0 0.77426,0.517787 1.5075,1.43393 l 1.14766,1.433932 v 2.965356 c 0,2.926788 -0.006,2.970939 -0.45682,3.394517 -0.58983,0.554122 -0.58076,1.155076 0.0246,1.631285 0.61196,0.481359 0.71744,0.475528 1.26277,-0.06979 z m -1.0871,-0.155589 c -0.68518,-0.501021 0.0433,-1.743672 0.75903,-1.294942 0.45012,0.282175 0.51677,1.004429 0.11939,1.294942 -0.17949,0.131256 -0.37717,0.238645 -0.43925,0.238645 -0.0621,0 -0.25975,-0.107393 -0.43924,-0.238645 z m 0.52097,-0.690599 c -0.0588,-0.0952 -0.18487,-0.124939 -0.28007,-0.06612 -0.0952,0.05884 -0.12498,0.184857 -0.066,0.280052 0.0588,0.0952 0.18486,0.12494 0.28004,0.06612 0.0952,-0.05883 0.12499,-0.184856 0.066,-0.280053 z m -3.99731,-3.56063 c -0.55259,-0.55259 -0.20797,-1.174676 0.65073,-1.174676 0.58461,0 0.83452,0.51603 0.52764,1.089463 -0.23764,0.444053 -0.78029,0.483294 -1.17837,0.08521 z m 0.71786,-0.443766 c 0.0621,-0.100503 -0.0201,-0.182726 -0.18274,-0.182726 -0.1626,0 -0.24483,0.08223 -0.18272,0.182726 0.0621,0.100502 0.14434,0.182727 0.18272,0.182727 0.0384,0 0.12061,-0.08223 0.18274,-0.182727 z m 19.28609,-3.370399 c -0.12045,-0.145222 -0.19225,-0.453571 -0.15943,-0.68523 0.0494,-0.348173 0.1706,-0.421194 0.69927,-0.421194 0.52867,0 0.64989,0.07303 0.69925,0.421194 0.0714,0.50424 -0.25634,0.949263 -0.69925,0.949263 -0.1764,0 -0.41933,-0.118819 -0.53984,-0.264033 z m 0.72255,-0.456094 c 0,-0.09456 -0.0822,-0.222762 -0.18271,-0.284874 -0.1005,-0.06211 -0.18273,0.01526 -0.18273,0.171944 0,0.156681 0.0823,0.284875 0.18273,0.284875 0.1005,0 0.18271,-0.07738 0.18271,-0.171945 z m -24.17225,-1.220306 c -0.0718,-0.07176 -0.13043,-0.31945 -0.13043,-0.550413 0,-0.496641 0.58935,-0.867806 1.11368,-0.701389 0.2859,0.09074 0.35634,0.24729 0.31287,0.695351 -0.0481,0.495327 -0.13556,0.586038 -0.61085,0.632587 -0.3051,0.0299 -0.61346,-0.0043 -0.68521,-0.07614 z m 0.78316,-0.617752 c 0,-0.100502 -0.0363,-0.182726 -0.0805,-0.182726 -0.0443,0 -0.13133,0.08223 -0.19351,0.182726 -0.0621,0.100502 -0.0259,0.182728 0.0805,0.182728 0.10641,0 0.19353,-0.08223 0.19353,-0.182728 z m 28.07911,-1.035455 c -0.25939,-0.259387 -0.10594,-0.970153 0.25053,-1.160969 0.74728,-0.399931 1.46446,0.216654 1.08239,0.93057 -0.18411,0.344012 -1.06675,0.496577 -1.33292,0.230399 z m 0.79182,-0.528512 c 0,-0.156682 -0.0836,-0.233227 -0.18571,-0.170101 -0.10217,0.06313 -0.13844,0.19132 -0.0805,0.284875 0.15666,0.25345 0.2663,0.206192 0.2663,-0.114768 z m -24.74813,-0.369329 c -0.26318,-0.263181 -0.21807,-0.372398 0.50951,-1.23341 0.43905,-0.519564 1.09758,-1.341539 1.46343,-1.826613 l 0.66517,-0.881951 v -4.17795 c 0,-2.588196 -0.0695,-4.220924 -0.18273,-4.290884 -0.11985,-0.07408 -0.18273,1.393082 -0.18273,4.265517 v 4.37845 l -1.14766,1.433931 c -0.73325,0.916141 -1.27761,1.433931 -1.5075,1.433931 -0.35107,0 -0.36114,-0.177964 -0.41348,-7.309098 -0.0583,-7.944607 -0.009,-8.862281 0.47794,-8.862281 0.17079,0 1.02576,0.575591 1.89994,1.279093 l 1.58938,1.279091 h 4.40376 c 2.8893,0 4.36489,-0.06284 4.29081,-0.182728 -0.07,-0.11312 -1.762,-0.185812 -4.44191,-0.190823 l -4.32902,-0.0082 -1.27909,-1.052718 c -0.74208,-0.610749 -1.3036,-1.221076 -1.33747,-1.453722 l -0.0585,-0.401004 h 8.05846 c 6.96964,0 8.07254,0.03677 8.16289,0.272202 0.0641,0.167019 -0.43238,0.955819 -1.28481,2.041329 l -1.3893,1.769129 v 4.364915 c 0,2.863413 0.0629,4.326067 0.18274,4.251983 0.1135,-0.07017 0.18273,-1.758769 0.18273,-4.459122 v -4.346188 l 1.20532,-1.499671 c 0.66293,-0.824816 1.30019,-1.468059 1.41614,-1.429427 0.15412,0.05136 0.22359,2.265259 0.25837,8.232099 0.0449,7.688567 0.0289,8.161679 -0.27409,8.158777 -0.17691,-0.0016 -1.08565,-0.6184 -2.01943,-1.370455 l -1.69777,-1.367375 h -4.1844 c -2.59249,0 -4.22736,0.06952 -4.29733,0.182727 -0.074,0.119831 1.36324,0.182728 4.176,0.182728 h 4.28893 l 1.51342,1.192362 c 0.83237,0.655802 1.52932,1.3008 1.54877,1.433333 0.0408,0.277635 -4.97093,0.479454 -11.92521,0.480223 -3.45054,3.83e-4 -4.09553,-0.04246 -4.34138,-0.288302 z m 15.32852,-0.40942 c -0.0955,-0.08248 -0.63295,-0.533251 -1.1944,-1.001684 l -1.02083,-0.851698 -4.4412,-0.04899 c -3.85403,-0.04253 -4.4658,-0.08799 -4.62713,-0.343934 -0.10232,-0.162216 -0.13435,-0.429455 -0.0712,-0.593865 0.10217,-0.26627 0.63985,-0.298929 4.92129,-0.298929 h 4.80658 l 1.45756,1.186882 c 0.80167,0.652784 1.51869,1.187263 1.59337,1.187728 0.10201,6.36e-4 -0.0121,-14.428992 -0.11547,-14.549794 -0.0106,-0.01315 -0.41399,0.49304 -0.89518,1.124746 l -0.87486,1.148557 -0.1135,4.313115 c -0.0727,2.763584 -0.1851,4.370586 -0.31286,4.473079 -0.11169,0.08958 -0.38028,0.09142 -0.61051,0.0041 l -0.41115,-0.155796 v -4.64061 -4.640633 l 1.12927,-1.440943 c 0.62109,-0.792518 1.21723,-1.501355 1.32477,-1.57519 0.1076,-0.07384 -3.10741,-0.135504 -7.14432,-0.137046 -4.0369,-0.0015 -7.49045,-0.05596 -7.67455,-0.12095 -0.18409,-0.06499 -0.006,0.110809 0.39619,0.39066 0.40201,0.279849 1.05239,0.783839 1.44532,1.119976 l 0.7144,0.611158 4.40196,0.04886 4.40197,0.04886 v 0.548183 0.548183 l -4.681,0.04871 -4.68101,0.04872 -1.07491,-0.810514 c -0.5912,-0.445783 -1.34216,-1.028699 -1.66878,-1.295371 l -0.59385,-0.484858 0.006,7.550749 c 0.005,5.732119 0.0556,7.462731 0.21316,7.185296 0.11425,-0.200999 0.56394,-0.785455 0.99944,-1.298791 l 0.79183,-0.933339 v -4.213768 c 0,-2.317572 0.0499,-4.343834 0.11094,-4.502803 0.11666,-0.304026 0.89479,-0.400825 1.06095,-0.131984 0.0534,0.08638 0.10443,2.267669 0.11335,4.847312 l 0.0163,4.690255 -1.20888,1.548149 -1.2089,1.54815 h 7.44693 c 4.09581,0 7.36882,-0.06749 7.27333,-0.149982 z m 12.83051,-1.981833 c -0.19854,-0.198541 -0.13889,-0.884369 0.0975,-1.120729 0.62022,-0.62023 1.65351,0.109162 1.24253,0.877093 -0.19071,0.356371 -1.0678,0.515838 -1.34,0.243636 z M 173.78837,49.163627 c -0.65044,-0.37885 -0.2795,-1.447183 0.50251,-1.447183 0.76948,0 1.08704,0.80549 0.53512,1.357405 -0.33035,0.330344 -0.58655,0.352512 -1.03763,0.08977 z m 0.59386,-0.716274 c 0,-0.100501 -0.0363,-0.182727 -0.0805,-0.182727 -0.0443,0 -0.13133,0.08223 -0.1935,0.182727 -0.0622,0.100503 -0.0259,0.182728 0.0805,0.182728 0.1064,0 0.19352,-0.08223 0.19352,-0.182728 z m 3.51622,-2.769604 c -0.52967,-0.529668 -0.0561,-1.329055 0.72214,-1.218743 0.34817,0.04936 0.42119,0.170583 0.42119,0.699254 0,0.546606 -0.0666,0.647325 -0.45809,0.693081 -0.25197,0.02945 -0.56032,-0.04868 -0.68524,-0.173592 z m 0.68652,-0.519489 c 0,-0.100502 -0.0363,-0.182728 -0.0805,-0.182728 -0.0443,0 -0.13149,0.08223 -0.19352,0.182728 -0.0621,0.100502 -0.0259,0.182728 0.0805,0.182728 0.1064,0 0.19352,-0.08223 0.19352,-0.182728 z m 28.24444,-1.018052 c -0.56289,-0.562885 -0.23205,-1.357405 0.56524,-1.357405 0.38254,0 0.79216,0.459468 0.79216,0.888572 0,0.265123 -0.5339,0.755976 -0.82228,0.755976 -0.13647,0 -0.3772,-0.129218 -0.53512,-0.287143 z m 0.70821,-0.642101 c -0.0588,-0.0952 -0.18486,-0.124941 -0.28005,-0.06612 -0.0952,0.05883 -0.12499,0.184857 -0.066,0.280053 0.0588,0.0952 0.18488,0.12494 0.28005,0.0661 0.0952,-0.05884 0.12499,-0.184857 0.066,-0.280051 z m -23.98797,-1.057701 c -0.13798,-0.08752 -0.21698,-0.382332 -0.18273,-0.68243 0.0446,-0.390044 0.17058,-0.543987 0.48152,-0.588064 0.75441,-0.106955 1.10799,0.547095 0.67474,1.248123 -0.13663,0.221081 -0.64177,0.232687 -0.97353,0.02237 z m 0.6085,-0.57124 c 0.0621,-0.100502 -0.0201,-0.182727 -0.18273,-0.182727 -0.16261,0 -0.24484,0.08223 -0.18272,0.182727 0.0621,0.100501 0.14433,0.182727 0.18272,0.182727 0.0384,0 0.1206,-0.08223 0.18273,-0.182727 z m 19.16542,-3.369195 c -0.0603,-0.157395 -0.057,-0.496556 0.008,-0.753691 0.0998,-0.397542 0.2053,-0.45902 0.70495,-0.410728 0.53889,0.05209 0.58759,0.109796 0.58759,0.696338 0,0.588257 -0.0478,0.644146 -0.59512,0.696898 -0.41019,0.03953 -0.62925,-0.03157 -0.70494,-0.228817 z m 0.84323,-0.468081 c 0,-0.100502 -0.0822,-0.182727 -0.18271,-0.182727 -0.10051,0 -0.18274,0.08223 -0.18274,0.182727 0,0.100503 0.0822,0.182726 0.18274,0.182726 0.10049,0 0.18271,-0.08223 0.18271,-0.182726 z m -4.08091,-3.593639 c -0.067,-0.067 -0.12182,-0.353231 -0.12182,-0.636066 0,-0.396845 0.10489,-0.540558 0.45921,-0.629497 0.78744,-0.197636 1.33404,0.61742 0.78335,1.168108 -0.23636,0.236359 -0.92218,0.295996 -1.12072,0.09745 z m 0.79182,-0.609092 c 0,-0.100502 -0.0823,-0.182728 -0.18273,-0.182728 -0.1005,0 -0.18273,0.08223 -0.18273,0.182728 0,0.100502 0.0823,0.182726 0.18273,0.182726 0.1005,0 0.18273,-0.08223 0.18273,-0.182726 z"
         id="path32" /><path
         id="path29"
         style="opacity:0.90342;fill:url(#linearGradient32);fill-opacity:1;stroke:url(#linearGradient35);stroke-width:0.0971073;stroke-opacity:0.34"
         d="m 209.96163,35.574122 -7.0311,6.074819 -0.16968,16.530024 -5.83111,-5.717489 v 8.103673 l 12.94706,13.129413 z m -29.6564,0.0142 0.0515,38.117788 6.78721,-5.930144 0.0685,-17.190717 8.58674,9.083824 0.0173,-8.175442 z" /></g></g></svg>
